<svg xmlns="http://www.w3.org/2000/svg" viewBox="47.23 150.07 489.73 362.36" role="img" aria-label="Biodonth Odontologia Integrada">
  <title>Biodonth Odontologia Integrada</title>
  <desc>Logotipo da Biodonth: símbolo circular acima do nome BIODONTH e da assinatura 'odontologia integrada'.</desc>
  <path d="m 301.9409,158.0688 a 40.9133,40.9133 0 0 1 40.9133,40.9133 40.9133,40.9133 0 1 1 -40.9133,-40.9133 z" fill="currentColor" fill-rule="evenodd"/>
  <path d="m 242.3993,161.7682 c -8.2088,10.844 -12.8587,25.5336 -11.5965,43.7852 3.0975,44.7814 28.8046,68.6787 61.2768,72.8085 2.0917,0.2661 5.7939,0.2883 7.7534,0.2804 -5.1967,1.3043 -9.4667,2.1294 -14.9826,2.1294 -37.1631,0 -67.4733,-30.3098 -67.4733,-67.4725 0,-11.0779 1.8987,-20.9099 6.6122,-30.1705 -8.0805,12.5895 -12.7428,27.5713 -12.7428,43.6165 0,44.6468 36.0993,81.0614 80.3598,81.0614 68.4398,0 103.1911,-80.6473 63.6441,-131.7058 16.1352,15.5571 26.6053,37.2484 26.6053,63.2204 0,49.5977 -41.5673,90.048 -92.5329,90.048 -50.9656,0 -92.5328,-40.4503 -92.5328,-90.048 0,-32.9487 18.3457,-61.8609 45.6093,-77.553 z" fill="currentColor" fill-rule="evenodd"/>
  <path d="m 55.2348,363.7021 h 20.4524 c 4.9998,0 9.0601,1.3015 12.1659,3.9225 3.5604,3.0367 5.3329,7.6819 5.3329,13.9181 0,6.507 -2.1517,11.1526 -6.4391,13.9903 -1.3635,0.8855 -3.2873,1.7535 -5.772,2.6389 2.6968,0.5964 4.9088,1.5183 6.6662,2.7655 4.4994,3.1272 6.7416,8.2425 6.7416,15.2919 0,6.9954 -2.2422,12.3275 -6.7115,15.9967 -3.0148,2.5126 -6.5598,3.7597 -10.6506,3.7597 H 55.2348 c 0.2577,-0.9581 0.3938,-2.133 0.3938,-3.5608 v -65.2704 c 0,-1.4278 -0.1361,-2.5666 -0.3938,-3.4524 z m 10.5141,32.4635 h 4.3481 c 3.8785,0 6.8326,-0.8315 8.8477,-2.4944 2.8028,-2.2958 4.2116,-6.2902 4.2116,-12.0201 0,-8.3688 -3.651,-12.5443 -10.9687,-12.5443 h -6.4387 z m 0,34.253 h 7.1966 c 7.4234,0 11.1351,-4.6273 11.1351,-13.8641 0,-5.4405 -1.3333,-9.4714 -3.9995,-12.0741 -1.2122,-1.2111 -2.5452,-2.0425 -4.0151,-2.5126 -1.4691,-0.488 -3.4083,-0.7231 -5.8328,-0.7231 h -4.4843 z m 62.8908,-50.4483 h 8.453 c -0.1759,0.6584 -0.2819,1.541 -0.305,2.6615 v 50.6504 c 0.0231,1.1487 0.1291,2.0452 0.305,2.7035 h -8.453 c 0.1997,-0.8262 0.305,-1.7228 0.305,-2.7035 v -50.6504 c 0,-0.9525 -0.1053,-1.8352 -0.305,-2.6615 z m 59.0307,-0.8262 c 6.927,0 12.4215,2.2692 16.4838,6.8075 4.4499,5.0427 6.6686,12.3545 6.6686,21.9633 0,9.4691 -2.125,16.7249 -6.3632,21.7536 -4.0151,4.7624 -9.6509,7.1435 -16.8945,7.1435 -7.5611,0 -13.2784,-2.5491 -17.1294,-7.6338 -3.9448,-5.1967 -5.917,-12.4387 -5.917,-21.7116 0,-5.8828 0.939,-10.9957 2.8175,-15.3518 3.6748,-8.5447 10.449,-12.8588 20.3342,-12.9707 z m 0.0353,4.3561 c -5.1892,0 -9.0049,2.3252 -11.4587,6.9755 -2.2188,4.2446 -3.3341,9.9312 -3.3341,17.0751 0,16.5986 4.9545,24.9051 14.8635,24.9051 4.9545,0 8.6995,-2.3252 11.2474,-6.9755 1.221,-2.2132 2.0898,-4.6925 2.6298,-7.452 0.54,-2.7457 0.81,-6.0512 0.81,-9.9034 0,-16.2485 -4.9192,-24.4569 -14.7579,-24.6248 z m 50.1203,-3.5299 h 14.4759 c 5.342,0 9.8975,1.3028 13.6545,3.894 3.4397,2.3534 6.011,5.6029 7.7017,9.7351 1.7494,4.1742 2.6178,8.8246 2.6178,13.9093 0,7.7601 -1.7375,14.1754 -5.2241,19.2041 -4.297,6.1775 -9.8621,9.2729 -16.7185,9.2729 H 237.826 c 0.1997,-0.8262 0.3053,-1.7228 0.3053,-2.7035 v -50.6504 c 0,-1.0367 -0.1056,-1.919 -0.3053,-2.6615 z m 8.148,51.211 h 6.3633 c 4.1679,0 7.5258,-1.4707 10.038,-4.4264 1.726,-2.0591 2.9938,-4.4685 3.8276,-7.2276 1.1388,-3.8241 1.7137,-7.8582 1.7137,-12.1028 0,-8.7265 -2.3124,-15.1136 -6.9501,-19.162 -2.7706,-2.4371 -6.0583,-3.6557 -9.8621,-3.6557 h -5.1304 z m 78.3559,-52.0372 c 6.9271,0 12.4215,2.2692 16.4835,6.8075 4.4498,5.0427 6.6689,12.3545 6.6689,21.9633 0,9.4691 -2.125,16.7249 -6.3632,21.7536 -4.0155,4.7624 -9.6509,7.1435 -16.8948,7.1435 -7.5608,0 -13.2785,-2.5491 -17.1291,-7.6338 -3.9452,-5.1967 -5.9174,-12.4387 -5.9174,-21.7116 0,-5.8828 0.9394,-10.9957 2.8175,-15.3518 3.6748,-8.5447 10.449,-12.8588 20.3346,-12.9707 z m 0.0353,4.3561 c -5.1895,0 -9.0049,2.3252 -11.4587,6.9755 -2.2188,4.2446 -3.3345,9.9312 -3.3345,17.0751 0,16.5986 4.9545,24.9051 14.8635,24.9051 4.9545,0 8.6999,-2.3252 11.2475,-6.9755 1.2209,-2.2132 2.0901,-4.6925 2.6297,-7.452 0.5404,-2.7457 0.81,-6.0512 0.81,-9.9034 0,-16.2485 -4.9188,-24.4569 -14.7575,-24.6248 z m 53.8419,6.8076 v 42.9744 c 0,1.0085 0.1056,1.9051 0.3053,2.7035 h -4.1917 c 0.1997,-0.8262 0.3057,-1.7228 0.3057,-2.7035 v -50.6083 c 0,-1.0367 -0.106,-1.9333 -0.3057,-2.7036 h 7.4671 c 0.106,0.5464 0.3875,1.1908 0.8223,1.9329 l 25.6527,42.7926 v -42.0219 c 0,-0.9525 -0.1056,-1.8491 -0.3053,-2.7036 h 4.1913 c -0.1763,0.6302 -0.2819,1.5128 -0.3053,2.6615 v 50.8465 c 0.0234,1.0927 0.141,1.9333 0.3403,2.5074 h -6.8445 c -0.141,-0.4621 -0.4812,-1.1625 -1.0332,-2.0869 z m 56.6475,-10.3375 h 34.0478 v 5.0848 c -1.1273,-0.2383 -2.1017,-0.3641 -2.9236,-0.3641 h -10.1087 v 48.5912 c 0,0.9807 0.1056,1.8773 0.3054,2.7035 h -8.453 c 0.1993,-0.7984 0.3049,-1.695 0.3049,-2.7035 V 384.691 h -10.179 c -0.9628,0 -1.9602,0.1258 -2.9938,0.3641 z m 65.0425,29.0933 v 24.2607 c 0,0.9807 0.1056,1.863 0.305,2.6614 h -8.453 c 0.1997,-0.7425 0.3049,-1.6247 0.3049,-2.6614 v -50.6925 c 0,-0.9807 -0.1052,-1.863 -0.3049,-2.6615 h 8.453 c -0.1994,0.8966 -0.305,1.8071 -0.305,2.7036 v 22.2857 h 20.6395 v -22.2857 c 0,-0.8965 -0.1056,-1.807 -0.3053,-2.7036 h 8.4533 c -0.1993,0.7985 -0.3053,1.6808 -0.3053,2.6615 v 50.6925 c 0,0.9807 0.106,1.863 0.3053,2.6614 h -8.4533 c 0.1997,-0.7984 0.3053,-1.6807 0.3053,-2.6614 v -24.2607 z" fill="currentColor" fill-rule="evenodd"/>
  <path d="m 158.2277,469.4836 c -1.4759,0 -3.182,0.8393 -5.0911,2.5185 -1.9229,1.6792 -3.6422,3.5342 -5.159,5.5382 -1.5298,2.0174 -2.2882,3.2495 -2.2882,3.7371 0,0.4197 0.1894,0.7719 0.5821,1.0427 0.3792,0.2842 0.8668,0.4196 1.4488,0.4196 1.3949,0 3.0872,-0.6904 5.0506,-2.0853 1.977,-1.381 3.7101,-3.0331 5.2265,-4.9152 1.5033,-1.8955 2.2613,-3.3849 2.2613,-4.4681 0,-0.5281 -0.1894,-0.9617 -0.5821,-1.2865 -0.3792,-0.3386 -0.8664,-0.501 -1.4489,-0.501 z m 6.31,4.0488 v 0.6769 c -1.4758,1.7737 -3.128,2.654 -4.956,2.654 -0.1894,-0.0274 -0.3653,-0.0544 -0.5551,-0.0814 -0.1894,-0.027 -0.3927,-0.054 -0.6365,-0.0814 -4.2243,4.401 -7.8939,6.5943 -10.981,6.5943 -0.5825,0 -1.1241,-0.1489 -1.6113,-0.4602 -0.4876,-0.2982 -0.8668,-0.7043 -1.1106,-1.2054 -0.2573,-0.5007 -0.3788,-1.0832 -0.3788,-1.7467 0,-1.7736 0.785,-3.5068 2.3423,-5.1995 1.5572,-1.6922 3.4393,-3.0736 5.6465,-4.1433 2.2204,-1.0696 4.1568,-1.6112 5.8221,-1.6112 1.8011,0 2.6948,0.8394 2.6948,2.505 0,1.3405 -0.6499,2.9112 -1.9499,4.7119 0.2708,0.1084 0.5551,0.1624 0.8803,0.1624 1.6652,0 3.263,-0.9204 4.7932,-2.7754 z m 10.9136,-4.0488 c -1.0836,0 -2.6269,0.7583 -4.6444,2.2882 -2.004,1.5168 -3.778,3.2364 -5.3349,5.159 -1.5437,1.909 -2.3156,3.4123 -2.3156,4.4955 0,0.8803 0.4062,1.3134 1.2321,1.3134 1.1645,0 2.7623,-0.7583 4.8206,-2.2882 2.0445,-1.5168 3.8725,-3.2229 5.4703,-5.132 1.5978,-1.909 2.3967,-3.3579 2.3967,-4.3736 0,-0.9748 -0.5416,-1.4623 -1.6248,-1.4623 z m 1.7058,3.2499 21.4212,-24.4675 h 3.2496 l -24.9956,28.5294 c -0.5551,0.623 -1.1646,1.3405 -1.8146,2.1393 -0.6635,0.7854 -1.1507,1.4084 -1.4489,1.8551 -0.3113,0.4606 -0.5142,0.8938 -0.636,1.3135 -0.1219,0.4196 0.0675,0.6364 0.5685,0.6364 0.6635,0 2.2883,-1.0291 4.8882,-3.0736 2.5861,-2.0583 5.0236,-4.1028 7.2984,-6.1337 v 0.6769 c -3.1281,2.7215 -5.755,4.9152 -7.8809,6.5805 -2.1258,1.6656 -3.6827,2.505 -4.6579,2.505 -0.6904,0 -1.0287,-0.4062 -1.0287,-1.232 0,-1.0562 0.3653,-2.4376 1.1101,-4.1298 0,-0.0135 -0.027,-0.0544 -0.0679,-0.0949 -0.027,-0.0405 -0.0675,-0.054 -0.0945,-0.054 -3.6696,3.6692 -6.5673,5.5107 -8.6796,5.5107 -1.5029,0 -2.2613,-1.2455 -2.2613,-3.7371 0,-1.9499 0.7449,-3.7506 2.2208,-5.3893 1.4758,-1.6382 3.3039,-2.9247 5.4702,-3.8455 2.1668,-0.9342 4.1028,-1.3944 5.7955,-1.3944 1.3405,0 2.0174,0.5686 2.0174,1.7061 0,0.7989 -0.1624,1.4894 -0.474,2.0989 z m 19.0786,-3.2499 c -1.4759,0 -3.182,0.8393 -5.0911,2.5185 -1.9229,1.6792 -3.6422,3.5342 -5.159,5.5382 -1.5298,2.0174 -2.2882,3.2495 -2.2882,3.7371 0,0.4197 0.1894,0.7719 0.5821,1.0427 0.3792,0.2842 0.8668,0.4196 1.4489,0.4196 1.3948,0 3.0871,-0.6904 5.0505,-2.0853 1.977,-1.381 3.7101,-3.0331 5.2265,-4.9152 1.5033,-1.8955 2.2613,-3.3849 2.2613,-4.4681 0,-0.5281 -0.1894,-0.9617 -0.5821,-1.2865 -0.3792,-0.3386 -0.8664,-0.501 -1.4489,-0.501 z m 6.3101,4.0488 v 0.6769 c -1.4759,1.7737 -3.1281,2.654 -4.9561,2.654 -0.1894,-0.0274 -0.3653,-0.0544 -0.5551,-0.0814 -0.1894,-0.027 -0.3927,-0.054 -0.6365,-0.0814 -4.2243,4.401 -7.8939,6.5943 -10.981,6.5943 -0.5825,0 -1.1241,-0.1489 -1.6113,-0.4602 -0.4876,-0.2982 -0.8668,-0.7043 -1.1106,-1.2054 -0.2573,-0.5007 -0.3788,-1.0832 -0.3788,-1.7467 0,-1.7736 0.785,-3.5068 2.3423,-5.1995 1.5572,-1.6922 3.4393,-3.0736 5.6465,-4.1433 2.2204,-1.0696 4.1568,-1.6112 5.8221,-1.6112 1.8011,0 2.6948,0.8394 2.6948,2.505 0,1.3405 -0.6499,2.9112 -1.9499,4.7119 0.2708,0.1084 0.5551,0.1624 0.8803,0.1624 1.6652,0 3.263,-0.9204 4.7933,-2.7754 z m -1.0292,1.6247 v -0.6365 c 4.0214,-3.7236 6.8377,-5.5921 8.449,-5.5921 0.8938,0 1.3543,0.5686 1.3543,1.7061 0,0.9073 -0.2846,1.7872 -0.8397,2.654 -0.5551,0.8798 -1.6788,2.3966 -3.3715,4.5765 3.277,-2.735 6.1203,-4.9017 8.5169,-6.513 2.4102,-1.6112 4.4685,-2.4236 6.1878,-2.4236 0.9073,0 1.3544,0.623 1.3544,1.8685 0,1.2186 -0.4201,2.4237 -1.273,3.6287 -0.8394,1.2051 -2.2342,2.5051 -4.1568,3.9134 -2.0719,1.5569 -3.1006,2.6675 -3.1006,3.331 0,0.2573 0.1215,0.5011 0.3788,0.731 0.2438,0.2302 0.5011,0.3386 0.7718,0.3386 0.9208,0 2.1529,-0.5145 3.6697,-1.5302 1.5163,-1.0153 3.182,-2.3153 4.9826,-3.886 1.7876,-1.5708 3.25,-2.8434 4.3601,-3.7911 v 0.6769 c -1.6112,1.5029 -3.182,2.9113 -4.7257,4.2243 -1.5299,1.3135 -3.0602,2.4511 -4.5765,3.4124 -1.5164,0.9612 -2.7894,1.4488 -3.7912,1.4488 -0.6364,0 -1.0835,-0.2168 -1.3678,-0.6365 -0.2708,-0.4196 -0.4062,-0.8528 -0.4062,-1.3134 0,-1.0018 0.3927,-2.1259 1.1916,-3.3849 0.7853,-1.2595 1.882,-2.4781 3.2904,-3.6697 1.6112,-1.4353 2.7214,-2.5725 3.3444,-3.4393 0.623,-0.8529 0.4467,-1.286 -0.5416,-1.286 -1.2321,0 -3.1141,0.8393 -5.6192,2.5185 -2.5185,1.6788 -4.8611,3.4528 -7.0545,5.3079 -2.2072,1.8685 -4.2791,3.6962 -6.2286,5.4972 h -3.1007 l 5.2805,-5.9443 c 3.859,-4.3057 5.782,-6.6619 5.782,-7.0681 0,-0.2572 -0.1489,-0.3926 -0.4741,-0.3926 -1.1646,0 -3.9265,1.8955 -8.2866,5.6735 z m 39.8896,-11.7803 6.5944,-7.4607 h 3.4123 l -6.5943,7.4607 h 5.037 l -0.4331,0.677 h -5.1185 l -9.6406,10.9544 c -1.0562,1.1642 -2.2207,2.5591 -3.5072,4.1973 -1.2861,1.6387 -1.9226,2.5456 -1.9226,2.6949 0,0.555 0.2843,0.8393 0.8664,0.8393 2.1803,0 6.8246,-3.0736 13.9737,-9.2073 v 0.6769 l -2.112,1.8686 c -5.4706,4.8068 -9.4515,7.2169 -11.9292,7.2169 -0.6095,0 -1.0832,-0.1759 -1.4354,-0.5146 -0.3386,-0.3383 -0.5145,-0.7444 -0.5145,-1.1915 0,-1.0562 0.7448,-2.8164 2.2477,-5.2809 1.4894,-2.4506 4.4141,-5.863 8.7742,-10.2366 -2.6944,1.8011 -6.4451,4.8342 -11.2657,9.0859 v -0.6365 c 1.6251,-1.5298 3.6156,-3.2634 5.9983,-5.2129 2.3832,-1.9365 4.7123,-3.6967 6.9736,-5.2539 h -2.8843 l 0.5551,-0.677 z m 13.2562,6.1068 c -1.4758,0 -3.182,0.8393 -5.0911,2.5185 -1.9229,1.6792 -3.6422,3.5342 -5.1589,5.5382 -1.5299,2.0174 -2.2883,3.2495 -2.2883,3.7371 0,0.4197 0.1894,0.7719 0.5821,1.0427 0.3792,0.2842 0.8668,0.4196 1.4489,0.4196 1.3948,0 3.0871,-0.6904 5.0506,-2.0853 1.9769,-1.381 3.7101,-3.0331 5.2264,-4.9152 1.5033,-1.8955 2.2613,-3.3849 2.2613,-4.4681 0,-0.5281 -0.1894,-0.9617 -0.5821,-1.2865 -0.3792,-0.3386 -0.8664,-0.501 -1.4489,-0.501 z m 6.3101,4.0488 v 0.6769 c -1.4759,1.7737 -3.128,2.654 -4.9561,2.654 -0.1894,-0.0274 -0.3653,-0.0544 -0.5551,-0.0814 -0.1894,-0.027 -0.3927,-0.054 -0.6365,-0.0814 -4.2243,4.401 -7.8939,6.5943 -10.981,6.5943 -0.5825,0 -1.1241,-0.1489 -1.6113,-0.4602 -0.4876,-0.2982 -0.8668,-0.7043 -1.1106,-1.2054 -0.2572,-0.5007 -0.3787,-1.0832 -0.3787,-1.7467 0,-1.7736 0.7849,-3.5068 2.3422,-5.1995 1.5573,-1.6922 3.4393,-3.0736 5.6466,-4.1433 2.2203,-1.0696 4.1568,-1.6112 5.822,-1.6112 1.8011,0 2.6949,0.8394 2.6949,2.505 0,1.3405 -0.65,2.9112 -1.95,4.7119 0.2708,0.1084 0.5551,0.1624 0.8803,0.1624 1.6653,0 3.263,-0.9204 4.7933,-2.7754 z m 23.9664,-23.1271 1.977,-2.1393 h 3.0601 l -24.9956,27.9743 c -2.9926,3.2769 -4.482,5.186 -4.482,5.7411 0,0.501 0.2708,0.7583 0.7989,0.7583 0.9208,0 1.9769,-0.3926 3.1685,-1.1645 1.1916,-0.7854 2.8028,-2.0854 4.8203,-3.913 2.0174,-1.8281 3.5068,-3.1416 4.4685,-3.9674 v 0.6769 c -3.6017,3.304 -6.2287,5.6192 -7.8943,6.9462 -1.6788,1.3134 -3.1956,1.9769 -4.563,1.9769 -0.4876,0 -0.8803,-0.1759 -1.2186,-0.5416 -0.3252,-0.3521 -0.4876,-0.7718 -0.4876,-1.2455 0,-1.3544 0.6635,-2.9248 1.977,-4.7258 1.3269,-1.8011 3.1141,-3.8995 5.3618,-6.3097 0.1628,-0.2033 0.6365,-0.7718 1.4219,-1.6791 0.7989,-0.9208 1.5573,-1.8281 2.3018,-2.7219 -1.8277,1.3814 -5.3349,4.3736 -10.5479,9.018 v -0.6361 l 11.2657,-9.7628 c 1.3675,-1.1646 5.89,-5.9309 13.5675,-14.285 z m -0.7179,19.0783 c -1.4758,0 -3.182,0.8393 -5.091,2.5185 -1.923,1.6792 -3.6423,3.5342 -5.159,5.5382 -1.5299,2.0174 -2.2883,3.2495 -2.2883,3.7371 0,0.4197 0.1894,0.7719 0.5821,1.0427 0.3792,0.2842 0.8668,0.4196 1.4489,0.4196 1.3948,0 3.0871,-0.6904 5.0506,-2.0853 1.9769,-1.381 3.7101,-3.0331 5.2264,-4.9152 1.5033,-1.8955 2.2613,-3.3849 2.2613,-4.4681 0,-0.5281 -0.1894,-0.9617 -0.5821,-1.2865 -0.3792,-0.3386 -0.8664,-0.501 -1.4489,-0.501 z m 6.3101,4.0488 v 0.6769 c -1.4759,1.7737 -3.128,2.654 -4.9561,2.654 -0.1894,-0.0274 -0.3653,-0.0544 -0.5551,-0.0814 -0.1894,-0.027 -0.3927,-0.054 -0.6365,-0.0814 -4.2243,4.401 -7.8939,6.5943 -10.981,6.5943 -0.5825,0 -1.1241,-0.1489 -1.6113,-0.4602 -0.4876,-0.2982 -0.8668,-0.7043 -1.1105,-1.2054 -0.2573,-0.5007 -0.3788,-1.0832 -0.3788,-1.7467 0,-1.7736 0.7849,-3.5068 2.3422,-5.1995 1.5573,-1.6922 3.4393,-3.0736 5.6466,-4.1433 2.2203,-1.0696 4.1568,-1.6112 5.822,-1.6112 1.8011,0 2.6949,0.8394 2.6949,2.505 0,1.3405 -0.65,2.9112 -1.95,4.7119 0.2708,0.1084 0.5551,0.1624 0.8803,0.1624 1.6653,0 3.263,-0.9204 4.7933,-2.7754 z m 12.2945,-2.4916 c 0,-0.4332 -0.1759,-0.7719 -0.5416,-1.0157 -0.3522,-0.2572 -0.7854,-0.3791 -1.2865,-0.3791 -1.4758,0 -3.182,0.7583 -5.1315,2.2612 -1.9365,1.5033 -3.6292,3.2364 -5.0506,5.1995 -1.4219,1.9499 -2.1394,3.3988 -2.1394,4.3196 0,0.3248 0.1624,0.6095 0.5007,0.8529 0.3252,0.2572 0.677,0.3791 1.0427,0.3791 1.0562,0 2.5999,-0.7579 4.6444,-2.2612 2.0309,-1.5029 3.8725,-3.209 5.5112,-5.0911 1.6382,-1.8955 2.4506,-3.3174 2.4506,-4.2652 z m -13.6759,17.8462 c -4.9152,2.1123 -8.5439,3.7915 -10.873,5.0101 -2.3288,1.2321 -4.2652,2.6809 -5.8221,4.3462 -1.327,1.4762 -1.9904,2.7488 -1.9904,3.805 0,0.5551 0.2029,0.9883 0.5955,1.3135 0.3927,0.3113 0.9073,0.4736 1.5438,0.4736 1.2726,0 2.6944,-0.5415 4.2652,-1.6247 1.5708,-1.0832 3.4663,-2.8163 5.6597,-5.1995 3.2769,-3.832 5.4841,-6.5399 6.6213,-8.1242 z m 0.7584,-0.8803 5.9035,-7.4472 c -0.4467,0.2573 -0.8259,0.5011 -1.1102,0.7044 -1.9091,1.2999 -3.3988,1.9495 -4.482,1.9495 -1.8551,0 -2.7758,-1.2185 -2.7758,-3.6557 0,-1.4758 0.4605,-2.8572 1.3678,-4.1568 0.9069,-1.3 2.085,-2.4101 3.5068,-3.3583 1.4354,-0.9343 2.9113,-1.6653 4.4411,-2.1799 1.5303,-0.5145 2.9522,-0.7718 4.2382,-0.7718 1.5843,0 2.3832,0.5686 2.3832,1.7061 0,0.3113 -0.1084,0.8124 -0.3113,1.4624 l 2.7349,-3.1685 h 3.3309 l -14.7451,16.8174 c 2.4776,-1.219 5.0506,-2.7894 7.718,-4.7393 2.6539,-1.9365 5.8495,-4.482 9.5731,-7.6366 v 0.6769 c -2.5595,2.2204 -4.7528,4.0484 -6.5809,5.4973 -1.828,1.4354 -3.7101,2.7623 -5.6326,3.9809 -1.9365,1.2186 -3.9269,2.3018 -5.9984,3.2495 -3.3853,3.6967 -6.2151,6.7028 -8.5034,8.991 -2.2882,2.2883 -4.1977,4.0349 -5.714,5.2539 -1.5168,1.2186 -2.8029,2.058 -3.8321,2.532 -1.0291,0.4737 -1.9904,0.7175 -2.8977,0.7175 -0.7854,0 -1.4219,-0.2303 -1.8955,-0.677 -0.4741,-0.4466 -0.7179,-1.0156 -0.7179,-1.7061 0,-1.1102 0.5555,-2.3288 1.6656,-3.6422 1.1102,-1.327 2.6945,-2.6405 4.7663,-3.9539 2.058,-1.3 4.4681,-2.5321 7.217,-3.6696 l 5.7954,-2.4507 z m 34.5822,-27.1214 c 0.5825,0 0.8803,0.3522 0.8803,1.07 0,0.4197 -0.1219,0.758 -0.3522,1.0288 -0.2438,0.2573 -0.5416,0.3927 -0.9208,0.3927 -0.7175,0 -1.0697,-0.3113 -1.0697,-0.9478 0,-0.3657 0.1489,-0.7175 0.4332,-1.0427 0.2982,-0.3382 0.6365,-0.501 1.0292,-0.501 z m -13.7164,14.1904 -0.0814,-0.6365 c 2.0044,-1.8276 4.3601,-3.5608 7.0545,-5.1994 h 3.5748 l -9.3563,10.4803 c -0.6635,0.7449 -1.0832,1.4354 -1.273,2.0719 -0.1894,0.6361 -0.027,0.9477 0.4741,0.9477 1.327,0 3.2904,-0.9751 5.9174,-2.9382 2.613,-1.9634 5.0366,-4.0218 7.2574,-6.1881 v 0.6769 c -2.5726,2.4511 -5.0371,4.5769 -7.4202,6.3506 -2.3832,1.7737 -4.3327,2.6539 -5.836,2.6539 -0.8664,0 -1.3131,-0.4602 -1.3131,-1.3944 0,-2.7489 2.1529,-6.2696 6.4316,-10.5483 0.2438,-0.2438 0.4602,-0.4737 0.65,-0.704 0.2029,-0.2168 0.3927,-0.4197 0.5821,-0.6095 -2.3832,1.4354 -4.6035,3.1146 -6.6619,5.0371 z m 24.1967,-5.5921 c -1.5842,0 -3.3444,0.7853 -5.2943,2.3426 -1.9365,1.5569 -3.6288,3.3309 -5.0641,5.3214 -1.4489,1.9769 -2.1664,3.3849 -2.1664,4.1973 0,0.4062 0.1354,0.7314 0.3927,1.0022 0.2708,0.2572 0.5956,0.3926 0.9883,0.3926 1.0832,0 2.6539,-0.7583 4.6849,-2.2612 2.0313,-1.5029 3.8725,-3.2225 5.5112,-5.1185 1.6382,-1.909 2.4506,-3.3984 2.4506,-4.4816 0,-0.9343 -0.5011,-1.3948 -1.5029,-1.3948 z m 10.4669,4.8881 -2.0179,1.7062 c -3.1681,2.6404 -5.5242,4.509 -7.041,5.5922 -1.5164,1.0831 -2.8568,1.6247 -4.0214,1.6247 -0.7719,0 -1.1511,-0.4332 -1.1511,-1.3134 0,-0.9208 0.3522,-2.2208 1.0701,-3.886 -3.778,3.4663 -6.5673,5.1994 -8.368,5.1994 -0.7854,0 -1.4354,-0.3113 -1.9365,-0.9342 -0.501,-0.623 -0.7583,-1.5303 -0.7583,-2.7215 0,-1.3409 0.3927,-2.6678 1.1915,-3.9809 0.7854,-1.3135 1.8551,-2.4645 3.1956,-3.4802 1.3269,-1.0018 2.8167,-1.8007 4.4685,-2.3831 1.6517,-0.5821 3.263,-0.8664 4.8202,-0.8664 0.7719,0 1.327,0.1354 1.6927,0.4197 0.3522,0.2708 0.5416,0.7313 0.5686,1.3674 -0.027,0.1354 -0.0405,0.2573 -0.054,0.3792 -0.0135,0.1084 -0.0409,0.2843 -0.0814,0.4876 -0.0405,0.2168 -0.081,0.3927 -0.0949,0.5146 l 2.4915,-2.9247 3.331,-0.2438 -1.0288,1.2729 c -0.8398,1.0018 -1.5303,1.8277 -2.0584,2.4777 -0.5281,0.65 -0.9882,1.1781 -1.3539,1.6112 -4.1298,4.4685 -6.1882,7.082 -6.1882,7.8535 0,0.3926 0.1898,0.5959 0.5551,0.5959 0.5011,0 1.2595,-0.2978 2.2616,-0.8937 1.0018,-0.5956 2.1394,-1.381 3.385,-2.3562 1.259,-0.9883 2.6944,-2.1393 4.3057,-3.4798 1.6251,-1.3405 2.5594,-2.1123 2.8167,-2.3152 z m 25.5237,-13.4864 c 0.5825,0 0.8803,0.3522 0.8803,1.07 0,0.4197 -0.1219,0.758 -0.3522,1.0288 -0.2438,0.2573 -0.5416,0.3927 -0.9208,0.3927 -0.7175,0 -1.0697,-0.3113 -1.0697,-0.9478 0,-0.3657 0.1489,-0.7175 0.4332,-1.0427 0.2982,-0.3382 0.6365,-0.501 1.0292,-0.501 z m -13.7164,14.1904 -0.0814,-0.6365 c 2.0044,-1.8276 4.3601,-3.5608 7.0545,-5.1994 h 3.5748 l -9.3563,10.4803 c -0.6635,0.7449 -1.0832,1.4354 -1.273,2.0719 -0.1894,0.6361 -0.027,0.9477 0.4741,0.9477 1.327,0 3.2904,-0.9751 5.9174,-2.9382 2.613,-1.9634 5.0366,-4.0218 7.2574,-6.1881 v 0.6769 c -2.5725,2.4511 -5.0371,4.5769 -7.4202,6.3506 -2.3832,1.7737 -4.3327,2.6539 -5.836,2.6539 -0.8664,0 -1.3131,-0.4602 -1.3131,-1.3944 0,-2.7489 2.1529,-6.2696 6.4316,-10.5483 0.2438,-0.2438 0.4602,-0.4737 0.65,-0.704 0.2029,-0.2168 0.3927,-0.4197 0.5821,-0.6095 -2.3832,1.4354 -4.6035,3.1146 -6.6619,5.0371 z m 12.4978,0.0814 v -0.6365 c 4.0214,-3.7236 6.8378,-5.5921 8.449,-5.5921 0.8938,0 1.3544,0.5686 1.3544,1.7061 0,0.9073 -0.2847,1.7872 -0.8398,2.654 -0.5551,0.8798 -1.6788,2.3966 -3.3714,4.5765 3.2769,-2.735 6.1202,-4.9017 8.5169,-6.513 2.4101,-1.6112 4.4685,-2.4236 6.1877,-2.4236 0.9073,0 1.3544,0.623 1.3544,1.8685 0,1.2186 -0.4201,2.4237 -1.273,3.6287 -0.8393,1.2051 -2.2342,2.5051 -4.1568,3.9134 -2.0718,1.5569 -3.1006,2.6675 -3.1006,3.331 0,0.2573 0.1215,0.5011 0.3788,0.731 0.2438,0.2302 0.5011,0.3386 0.7719,0.3386 0.9208,0 2.1528,-0.5145 3.6696,-1.5302 1.5164,-1.0153 3.182,-2.3153 4.9827,-3.886 1.7875,-1.5708 3.2499,-2.8434 4.3601,-3.7911 v 0.6769 c -1.6113,1.5029 -3.182,2.9113 -4.7258,4.2243 -1.5299,1.3135 -3.0601,2.4511 -4.5765,3.4124 -1.5164,0.9612 -2.7893,1.4488 -3.7911,1.4488 -0.6365,0 -1.0836,-0.2168 -1.3679,-0.6365 -0.2708,-0.4196 -0.4062,-0.8528 -0.4062,-1.3134 0,-1.0018 0.3927,-2.1259 1.1916,-3.3849 0.7854,-1.2595 1.8821,-2.4781 3.2904,-3.6697 1.6113,-1.4353 2.7215,-2.5725 3.3444,-3.4393 0.623,-0.8529 0.4467,-1.286 -0.5415,-1.286 -1.2321,0 -3.1142,0.8393 -5.6192,2.5185 -2.5186,1.6788 -4.8612,3.4528 -7.0545,5.3079 -2.2073,1.8685 -4.2791,3.6962 -6.2287,5.4972 h -3.1006 l 5.2804,-5.9443 c 3.8591,-4.3057 5.782,-6.6619 5.782,-7.0681 0,-0.2572 -0.1489,-0.3926 -0.4741,-0.3926 -1.1645,0 -3.9265,1.8955 -8.2866,5.6735 z m 39.8897,-11.7803 6.5943,-7.4607 h 3.4123 l -6.5943,7.4607 h 5.0371 l -0.4332,0.677 H 412.53 l -9.6406,10.9544 c -1.0561,1.1642 -2.2207,2.5591 -3.5072,4.1973 -1.286,1.6387 -1.9225,2.5456 -1.9225,2.6949 0,0.555 0.2843,0.8393 0.8663,0.8393 2.1803,0 6.8247,-3.0736 13.9737,-9.2073 v 0.6769 l -2.1119,1.8686 c -5.4707,4.8068 -9.4516,7.2169 -11.9293,7.2169 -0.6094,0 -1.0831,-0.1759 -1.4353,-0.5146 -0.3387,-0.3383 -0.5146,-0.7444 -0.5146,-1.1915 0,-1.0562 0.7449,-2.8164 2.2477,-5.2809 1.4894,-2.4506 4.4141,-5.863 8.7742,-10.2366 -2.6944,1.8011 -6.445,4.8342 -11.2657,9.0859 v -0.6365 c 1.6252,-1.5298 3.6156,-3.2634 5.9984,-5.2129 2.3831,-1.9365 4.7122,-3.6967 6.9735,-5.2539 h -2.8842 l 0.5551,-0.677 z m 4.6853,11.9427 c 2.1933,0 4.0484,-0.2843 5.5512,-0.8394 1.5168,-0.555 2.654,-1.2185 3.4394,-1.9769 0.7718,-0.7719 1.1645,-1.3949 1.1645,-1.8686 0,-0.7719 -0.4467,-1.151 -1.3539,-1.151 -1.1781,0 -2.5726,0.528 -4.1568,1.5707 -1.5843,1.0427 -3.1281,2.4642 -4.6444,4.2652 z m 14.082,-1.7871 v 0.6769 c -2.9521,2.9653 -5.6735,5.213 -8.1242,6.7703 -2.4645,1.5433 -4.9426,2.3152 -7.4611,2.3152 -2.2203,0 -3.3309,-1.2729 -3.3309,-3.805 0,-2.1258 0.7989,-3.9809 2.3966,-5.5786 1.5978,-1.5978 3.4802,-2.8299 5.6331,-3.6963 2.1528,-0.8532 3.913,-1.2864 5.2535,-1.2864 0.7719,0 1.3678,0.1759 1.8145,0.5416 0.4332,0.3521 0.65,0.8258 0.65,1.4083 0,0.8934 -0.4876,1.7197 -1.4624,2.4777 -0.9886,0.7448 -2.3426,1.3678 -4.0893,1.8685 -1.7466,0.4876 -3.805,0.7719 -6.1472,0.8533 -2.0175,2.2747 -3.0196,4.0079 -3.0196,5.1995 0,0.4197 0.2168,0.7719 0.6499,1.0427 0.4467,0.2842 0.9883,0.4196 1.6518,0.4196 4.2517,0 9.4516,-3.0736 15.5853,-9.2073 z m 12.2945,-2.4916 c 0,-0.4332 -0.1758,-0.7719 -0.5415,-1.0157 -0.3522,-0.2572 -0.7854,-0.3791 -1.2865,-0.3791 -1.4759,0 -3.182,0.7583 -5.1316,2.2612 -1.9364,1.5033 -3.6291,3.2364 -5.0506,5.1995 -1.4218,1.9499 -2.1393,3.3988 -2.1393,4.3196 0,0.3248 0.1624,0.6095 0.5007,0.8529 0.3252,0.2572 0.677,0.3791 1.0426,0.3791 1.0562,0 2.6,-0.7579 4.6444,-2.2612 2.031,-1.5029 3.8725,-3.209 5.5112,-5.0911 1.6383,-1.8955 2.4506,-3.3174 2.4506,-4.2652 z m -13.6758,17.8462 c -4.9152,2.1123 -8.5439,3.7915 -10.8731,5.0101 -2.3287,1.2321 -4.2652,2.6809 -5.822,4.3462 -1.327,1.4762 -1.9905,2.7488 -1.9905,3.805 0,0.5551 0.2029,0.9883 0.5956,1.3135 0.3927,0.3113 0.9073,0.4736 1.5438,0.4736 1.2725,0 2.6944,-0.5415 4.2652,-1.6247 1.5707,-1.0832 3.4663,-2.8163 5.6596,-5.1995 3.2769,-3.832 5.4842,-6.5399 6.6214,-8.1242 z m 0.7584,-0.8803 5.9034,-7.4472 c -0.4467,0.2573 -0.8259,0.5011 -1.1102,0.7044 -1.909,1.2999 -3.3988,1.9495 -4.482,1.9495 -1.855,0 -2.7758,-1.2185 -2.7758,-3.6557 0,-1.4758 0.4606,-2.8572 1.3679,-4.1568 0.9069,-1.3 2.0849,-2.4101 3.5068,-3.3583 1.4354,-0.9343 2.9112,-1.6653 4.4411,-2.1799 1.5303,-0.5145 2.9521,-0.7718 4.2382,-0.7718 1.5843,0 2.3831,0.5686 2.3831,1.7061 0,0.3113 -0.1084,0.8124 -0.3113,1.4624 l 2.735,-3.1685 h 3.3309 l -14.7452,16.8174 c 2.4777,-1.219 5.0506,-2.7894 7.7181,-4.7393 2.6539,-1.9365 5.8494,-4.482 9.573,-7.6366 v 0.6769 c -2.5594,2.2204 -4.7527,4.0484 -6.5808,5.4973 -1.8281,1.4354 -3.7101,2.7623 -5.6327,3.9809 -1.9364,1.2186 -3.9269,2.3018 -5.9983,3.2495 -3.3854,3.6967 -6.2152,6.7028 -8.5034,8.991 -2.2883,2.2883 -4.1977,4.0349 -5.7141,5.2539 -1.5168,1.2186 -2.8028,2.058 -3.832,2.532 -1.0292,0.4737 -1.9905,0.7175 -2.8977,0.7175 -0.7854,0 -1.4219,-0.2303 -1.8956,-0.677 -0.4741,-0.4466 -0.7179,-1.0156 -0.7179,-1.7061 0,-1.1102 0.5555,-2.3288 1.6657,-3.6422 1.1102,-1.327 2.6944,-2.6405 4.7663,-3.9539 2.0579,-1.3 4.4681,-2.5321 7.2169,-3.6696 l 5.7955,-2.4507 z m 20.7709,-13.4861 c 1.1915,-0.9477 2.3831,-1.909 3.5612,-2.8977 1.1781,-0.9748 2.3426,-1.8955 3.5068,-2.7758 -0.2164,-0.8124 -0.108,-1.5569 0.3117,-2.1934 0.4332,-0.65 0.9478,-0.9748 1.5573,-0.9748 0.3382,0 0.636,0.0945 0.9068,0.2978 0.2708,0.2029 0.3927,0.4467 0.3927,0.731 0,0.3387 -0.108,0.623 -0.3383,0.8398 -0.2168,0.2029 -0.4876,0.3113 -0.8124,0.3113 -0.3116,0 -0.7448,-0.2708 -1.2999,-0.7989 -0.1624,0.2168 -0.2438,0.5146 -0.2438,0.8803 -0.027,0.3113 0.0949,0.6091 0.3792,0.8934 0.2708,0.2708 0.5821,0.4197 0.9343,0.4197 0.2302,0 0.5955,-0.054 1.0696,-0.1624 0.5281,-0.1084 0.8394,-0.1624 0.9478,-0.1624 0.2168,0 0.3927,0.2029 0.5416,0.5956 0.1489,0.3926 0.2168,0.8802 0.2168,1.4353 0,0.4741 -0.3252,1.0967 -0.9752,1.8821 -0.6496,0.7719 -1.7601,2.0583 -3.3444,3.832 -1.5978,1.7601 -2.6944,3.0196 -3.3039,3.7645 -0.6091,0.7445 -0.9069,1.3131 -0.9069,1.7058 0,0.3926 0.2708,0.5959 0.7989,0.5959 0.731,0 2.3152,-0.8667 4.7389,-2.5999 2.4101,-1.7332 5.2268,-3.94 8.4224,-6.6074 v 0.6769 c -7.109,6.0524 -11.6045,9.0855 -13.4865,9.0855 -0.7175,0 -1.0697,-0.4332 -1.0697,-1.3134 0,-1.2456 0.2438,-2.4102 0.7314,-3.5339 0.4872,-1.1105 1.327,-2.3291 2.5185,-3.6831 l 4.6444,-5.1184 c -0.5555,0.2032 -1.1781,0.2981 -1.8824,0.2707 -0.704,-0.027 -1.1372,-0.2163 -1.2861,-0.5955 -3.5207,2.9112 -5.9309,4.8607 -7.2308,5.8359 z m 27.7309,-5.037 c -1.5843,0 -3.3444,0.7853 -5.2944,2.3426 -1.9364,1.5569 -3.6287,3.3309 -5.064,5.3214 -1.4489,1.9769 -2.1664,3.3849 -2.1664,4.1973 0,0.4062 0.1354,0.7314 0.3927,1.0022 0.2708,0.2572 0.5956,0.3926 0.9883,0.3926 1.0831,0 2.6539,-0.7583 4.6849,-2.2612 2.0313,-1.5029 3.8725,-3.2225 5.5111,-5.1185 1.6383,-1.909 2.4507,-3.3984 2.4507,-4.4816 0,-0.9343 -0.5011,-1.3948 -1.5029,-1.3948 z m 10.4669,4.8881 -2.0179,1.7062 c -3.1681,2.6404 -5.5243,4.509 -7.041,5.5922 -1.5164,1.0831 -2.8569,1.6247 -4.0214,1.6247 -0.7719,0 -1.1511,-0.4332 -1.1511,-1.3134 0,-0.9208 0.3522,-2.2208 1.0701,-3.886 -3.778,3.4663 -6.5674,5.1994 -8.368,5.1994 -0.7854,0 -1.4354,-0.3113 -1.9365,-0.9342 -0.5011,-0.623 -0.7584,-1.5303 -0.7584,-2.7215 0,-1.3409 0.3927,-2.6678 1.1916,-3.9809 0.7854,-1.3135 1.8551,-2.4645 3.1955,-3.4802 1.327,-1.0018 2.8168,-1.8007 4.4685,-2.3831 1.6518,-0.5821 3.2631,-0.8664 4.8203,-0.8664 0.7719,0 1.327,0.1354 1.6927,0.4197 0.3522,0.2708 0.5416,0.7313 0.5686,1.3674 -0.027,0.1354 -0.0405,0.2573 -0.054,0.3792 -0.0135,0.1084 -0.0409,0.2843 -0.0814,0.4876 -0.0405,0.2168 -0.081,0.3927 -0.0949,0.5146 l 2.4915,-2.9247 3.3309,-0.2438 -1.0287,1.2729 c -0.8398,1.0018 -1.5303,1.8277 -2.0584,2.4777 -0.5281,0.65 -0.9883,1.1781 -1.354,1.6112 -4.1298,4.4685 -6.1881,7.082 -6.1881,7.8535 0,0.3926 0.1898,0.5959 0.5551,0.5959 0.5011,0 1.2594,-0.2978 2.2616,-0.8937 1.0018,-0.5956 2.1394,-1.381 3.3849,-2.3562 1.2591,-0.9883 2.6945,-2.1393 4.3057,-3.4798 1.6252,-1.3405 2.5595,-2.1123 2.8168,-2.3152 z m 10.8865,-4.8881 c -1.0836,0 -2.6269,0.7583 -4.6444,2.2882 -2.0039,1.5168 -3.778,3.2364 -5.3349,5.159 -1.5437,1.909 -2.3156,3.4123 -2.3156,4.4955 0,0.8803 0.4062,1.3134 1.2321,1.3134 1.1645,0 2.7623,-0.7583 4.8207,-2.2882 2.0444,-1.5168 3.8725,-3.2229 5.4702,-5.132 1.5978,-1.909 2.3967,-3.3579 2.3967,-4.3736 0,-0.9748 -0.5416,-1.4623 -1.6248,-1.4623 z m 1.7058,3.2499 21.4213,-24.4675 h 3.2495 l -24.9956,28.5294 c -0.5551,0.623 -1.1646,1.3405 -1.8146,2.1393 -0.6635,0.7854 -1.1507,1.4084 -1.4488,1.8551 -0.3113,0.4606 -0.5142,0.8938 -0.6361,1.3135 -0.1219,0.4196 0.0675,0.6364 0.5686,0.6364 0.6634,0 2.2882,-1.0291 4.8881,-3.0736 2.5861,-2.0583 5.0236,-4.1028 7.2984,-6.1337 v 0.6769 c -3.1281,2.7215 -5.755,4.9152 -7.8808,6.5805 -2.1259,1.6656 -3.6828,2.505 -4.6579,2.505 -0.6905,0 -1.0288,-0.4062 -1.0288,-1.232 0,-1.0562 0.3653,-2.4376 1.1102,-4.1298 0,-0.0135 -0.027,-0.0544 -0.0679,-0.0949 -0.027,-0.0405 -0.0675,-0.054 -0.0945,-0.054 -3.6697,3.6692 -6.5674,5.5107 -8.6797,5.5107 -1.5029,0 -2.2613,-1.2455 -2.2613,-3.7371 0,-1.9499 0.7449,-3.7506 2.2208,-5.3893 1.4758,-1.6382 3.3039,-2.9247 5.4702,-3.8455 2.1668,-0.9342 4.1028,-1.3944 5.7955,-1.3944 1.3405,0 2.0175,0.5686 2.0175,1.7061 0,0.7989 -0.1624,1.4894 -0.4741,2.0989 z" fill="currentColor" fill-rule="evenodd"/>
  <path d="m 518.4977,469.4836 c -1.5842,0 -3.3444,0.7853 -5.2944,2.3426 -1.9364,1.5569 -3.6287,3.3309 -5.064,5.3214 -1.4489,1.9769 -2.1664,3.3849 -2.1664,4.1973 0,0.4062 0.1354,0.7314 0.3927,1.0022 0.2708,0.2572 0.5956,0.3926 0.9883,0.3926 1.0832,0 2.6539,-0.7583 4.6849,-2.2612 2.0313,-1.5029 3.8725,-3.2225 5.5111,-5.1185 1.6383,-1.909 2.4507,-3.3984 2.4507,-4.4816 0,-0.9343 -0.5011,-1.3948 -1.5029,-1.3948 z m 10.4669,4.8881 -2.0179,1.7062 c -3.1681,2.6404 -5.5243,4.509 -7.041,5.5922 -1.5164,1.0831 -2.8569,1.6247 -4.0214,1.6247 -0.7719,0 -1.1511,-0.4332 -1.1511,-1.3134 0,-0.9208 0.3522,-2.2208 1.0701,-3.886 -3.778,3.4663 -6.5674,5.1994 -8.368,5.1994 -0.7854,0 -1.4354,-0.3113 -1.9365,-0.9342 -0.5011,-0.623 -0.7584,-1.5303 -0.7584,-2.7215 0,-1.3409 0.3927,-2.6678 1.1916,-3.9809 0.7854,-1.3135 1.8551,-2.4645 3.1955,-3.4802 1.327,-1.0018 2.8168,-1.8007 4.4685,-2.3831 1.6518,-0.5821 3.2631,-0.8664 4.8203,-0.8664 0.7719,0 1.327,0.1354 1.6927,0.4197 0.3522,0.2708 0.5416,0.7313 0.5686,1.3674 -0.027,0.1354 -0.0405,0.2573 -0.054,0.3792 -0.0135,0.1084 -0.0409,0.2843 -0.0814,0.4876 -0.0405,0.2168 -0.081,0.3927 -0.0949,0.5146 l 2.4915,-2.9247 3.3309,-0.2438 -1.0287,1.2729 c -0.8398,1.0018 -1.5303,1.8277 -2.0584,2.4777 -0.5281,0.65 -0.9883,1.1781 -1.354,1.6112 -4.1298,4.4685 -6.1881,7.082 -6.1881,7.8535 0,0.3926 0.1898,0.5959 0.5551,0.5959 0.5011,0 1.2594,-0.2978 2.2616,-0.8937 1.0018,-0.5956 2.1394,-1.381 3.3849,-2.3562 1.2591,-0.9883 2.6945,-2.1393 4.3057,-3.4798 1.6252,-1.3405 2.5595,-2.1123 2.8168,-2.3152 z" fill="currentColor" fill-rule="evenodd"/>
</svg>
