<svg xmlns="http://www.w3.org/2000/svg" viewBox="188.79 150.07 201.07 187.30" role="img" aria-label="Biodonth">
  <title>Biodonth</title>
  <desc>Símbolo da marca Biodonth: círculo com figura estilizada interna.</desc>
  <path d="m 301.9409,158.0688 a 40.9133,40.9133 0 0 1 40.9133,40.9133 40.9133,40.9133 0 1 1 -40.9133,-40.9133 z" fill="currentColor" fill-rule="evenodd"/>
  <path d="m 242.3993,161.7682 c -8.2088,10.844 -12.8587,25.5336 -11.5965,43.7852 3.0975,44.7814 28.8046,68.6787 61.2768,72.8085 2.0917,0.2661 5.7939,0.2883 7.7534,0.2804 -5.1967,1.3043 -9.4667,2.1294 -14.9826,2.1294 -37.1631,0 -67.4733,-30.3098 -67.4733,-67.4725 0,-11.0779 1.8987,-20.9099 6.6122,-30.1705 -8.0805,12.5895 -12.7428,27.5713 -12.7428,43.6165 0,44.6468 36.0993,81.0614 80.3598,81.0614 68.4398,0 103.1911,-80.6473 63.6441,-131.7058 16.1352,15.5571 26.6053,37.2484 26.6053,63.2204 0,49.5977 -41.5673,90.048 -92.5329,90.048 -50.9656,0 -92.5328,-40.4503 -92.5328,-90.048 0,-32.9487 18.3457,-61.8609 45.6093,-77.553 z" fill="currentColor" fill-rule="evenodd"/>
</svg>
